<svg width="200" height="200" viewBox="0 0 200 200" fill="none" xmlns="http://www.w3.org/2000/svg">
  <defs>
    <linearGradient id="gradient1" x1="0%" y1="0%" x2="100%" y2="100%">
      <stop offset="0%" stop-color="#4361ee" />
      <stop offset="100%" stop-color="#4895ef" />
    </linearGradient>
    <linearGradient id="gradient2" x1="0%" y1="0%" x2="100%" y2="100%">
      <stop offset="0%" stop-color="#00b4d8" />
      <stop offset="100%" stop-color="#90e0ef" />
    </linearGradient>
    <filter id="shadow" x="-20%" y="-20%" width="140%" height="140%">
      <feDropShadow dx="0" dy="4" stdDeviation="8" flood-opacity="0.2" />
    </filter>
  </defs>
  <circle cx="100" cy="100" r="90" fill="white" filter="url(#shadow)" />
  <path d="M100 30C61.34 30 30 61.34 30 100C30 138.66 61.34 170 100 170C138.66 170 170 138.66 170 100C170 61.34 138.66 30 100 30ZM100 160C67.36 160 40 132.64 40 100C40 67.36 67.36 40 100 40C132.64 40 160 67.36 160 100C160 132.64 132.64 160 100 160Z" fill="url(#gradient1)" />
  <path d="M100 55C79.56 55 63 71.56 63 92C63 112.44 79.56 129 100 129C120.44 129 137 112.44 137 92C137 71.56 120.44 55 100 55ZM100 119C85.1 119 73 106.9 73 92C73 77.1 85.1 65 100 65C114.9 65 127 77.1 127 92C127 106.9 114.9 119 100 119Z" fill="url(#gradient2)" />
  <path d="M100 75C90.61 75 83 82.61 83 92C83 101.39 90.61 109 100 109C109.39 109 117 101.39 117 92C117 82.61 109.39 75 100 75Z" fill="url(#gradient1)" />
  <path d="M100 140L115 170H85L100 140Z" fill="url(#gradient2)" />
  <path d="M70 110L40 125L55 95L70 110Z" fill="url(#gradient1)" />
  <path d="M130 110L160 125L145 95L130 110Z" fill="url(#gradient1)" />
</svg>
