<svg width="32" height="32" viewBox="0 0 32 32" fill="none" xmlns="http://www.w3.org/2000/svg">
  <defs>
    <linearGradient id="gradient1" x1="0%" y1="0%" x2="100%" y2="100%">
      <stop offset="0%" stop-color="#4361ee" />
      <stop offset="100%" stop-color="#4895ef" />
    </linearGradient>
    <linearGradient id="gradient2" x1="0%" y1="0%" x2="100%" y2="100%">
      <stop offset="0%" stop-color="#00b4d8" />
      <stop offset="100%" stop-color="#90e0ef" />
    </linearGradient>
  </defs>
  <circle cx="16" cy="16" r="15" fill="white" />
  <path d="M16 2C8.27 2 2 8.27 2 16C2 23.73 8.27 30 16 30C23.73 30 30 23.73 30 16C30 8.27 23.73 2 16 2ZM16 28C9.37 28 4 22.63 4 16C4 9.37 9.37 4 16 4C22.63 4 28 9.37 28 16C28 22.63 22.63 28 16 28Z" fill="url(#gradient1)" />
  <path d="M16 7C11.03 7 7 11.03 7 16C7 20.97 11.03 25 16 25C20.97 25 25 20.97 25 16C25 11.03 20.97 7 16 7ZM16 23C12.13 23 9 19.87 9 16C9 12.13 12.13 9 16 9C19.87 9 23 12.13 23 16C23 19.87 19.87 23 16 23Z" fill="url(#gradient2)" />
  <path d="M16 11C13.24 11 11 13.24 11 16C11 18.76 13.24 21 16 21C18.76 21 21 18.76 21 16C21 13.24 18.76 11 16 11Z" fill="url(#gradient1)" />
</svg>
